<svg xmlns="http://www.w3.org/2000/svg" xmlns:xlink="http://www.w3.org/1999/xlink" width="181" height="192" viewBox="0 0 181 192"><defs><filter id="a"><feColorMatrix in="SourceGraphic" values="0 0 0 0 0.934471 0 0 0 0 0.435338 0 0 0 0 0.526089 0 0 0 1.000000 0"/></filter><rect id="b" width="181" height="192" x="0" y="0"/></defs><g fill="none" fill-rule="evenodd" filter="url(#a)"><mask id="c" fill="#fff"><use xlink:href="#b"/></mask><g mask="url(#c)"><g transform="translate(-16 -16)"><g transform="translate(0 48)"><circle cx="15.845" cy="15.898" r="11.14" stroke="#666" stroke-linecap="round" stroke-linejoin="round" stroke-width="2"/><path stroke="#666" stroke-linecap="round" stroke-linejoin="round" stroke-width="2" d="M3.13806452 6.34606452C-1.11070968 12.0028387-1.11070968 19.7860645 3.13806452 25.4428387M28.5522581 25.4428387C32.8020645 19.7860645 32.8020645 12.0028387 28.5522581 6.34606452M6.29677419 28.6015484C11.9535484 32.8513548 19.7378065 32.8513548 25.3935484 28.6015484M25.3935484 3.18735484C19.7378065-1.06245161 11.9535484-1.06245161 6.29677419 3.18735484"/><path fill="#FFF" d="M12.6627097,12.7109677 L19.0286452,19.0769032 L12.6627097,12.7109677 Z"/><line x1="12.663" x2="19.029" y1="12.711" y2="19.077" stroke="#666" stroke-linecap="round" stroke-linejoin="round" stroke-width="2"/><path fill="#FFF" d="M19.0286452,12.7109677 L12.6627097,19.0769032 L19.0286452,12.7109677 Z"/><line x1="19.029" x2="12.663" y1="12.711" y2="19.077" stroke="#666" stroke-linecap="round" stroke-linejoin="round" stroke-width="2"/><g transform="translate(0 96)"><circle cx="15.845" cy="15.898" r="11.14" stroke="#666" stroke-linecap="round" stroke-linejoin="round" stroke-width="2"/><path stroke="#666" stroke-linecap="round" stroke-linejoin="round" stroke-width="2" d="M3.13806452 6.34606452C-1.11070968 12.0028387-1.11070968 19.7860645 3.13806452 25.4428387M28.5522581 25.4428387C32.8020645 19.7860645 32.8020645 12.0028387 28.5522581 6.34606452M6.29677419 28.6015484C11.9535484 32.8513548 19.7378065 32.8513548 25.3935484 28.6015484M25.3935484 3.18735484C19.7378065-1.06245161 11.9535484-1.06245161 6.29677419 3.18735484"/><path fill="#FFF" d="M12.6627097,12.7109677 L19.0286452,19.0769032 L12.6627097,12.7109677 Z"/><line x1="12.663" x2="19.029" y1="12.711" y2="19.077" stroke="#666" stroke-linecap="round" stroke-linejoin="round" stroke-width="2"/><path fill="#FFF" d="M19.0286452,12.7109677 L12.6627097,19.0769032 L19.0286452,12.7109677 Z"/><line x1="19.029" x2="12.663" y1="12.711" y2="19.077" stroke="#666" stroke-linecap="round" stroke-linejoin="round" stroke-width="2"/></g><g transform="translate(85 144)"><circle cx="15.845" cy="15.898" r="11.14" stroke="#666" stroke-linecap="round" stroke-linejoin="round" stroke-width="2"/><path stroke="#666" stroke-linecap="round" stroke-linejoin="round" stroke-width="2" d="M3.13806452 6.34606452C-1.11070968 12.0028387-1.11070968 19.7860645 3.13806452 25.4428387M28.5522581 25.4428387C32.8020645 19.7860645 32.8020645 12.0028387 28.5522581 6.34606452M6.29677419 28.6015484C11.9535484 32.8513548 19.7378065 32.8513548 25.3935484 28.6015484M25.3935484 3.18735484C19.7378065-1.06245161 11.9535484-1.06245161 6.29677419 3.18735484"/><path fill="#FFF" d="M12.6627097,12.7109677 L19.0286452,19.0769032 L12.6627097,12.7109677 Z"/><line x1="12.663" x2="19.029" y1="12.711" y2="19.077" stroke="#666" stroke-linecap="round" stroke-linejoin="round" stroke-width="2"/><path fill="#FFF" d="M19.0286452,12.7109677 L12.6627097,19.0769032 L19.0286452,12.7109677 Z"/><line x1="19.029" x2="12.663" y1="12.711" y2="19.077" stroke="#666" stroke-linecap="round" stroke-linejoin="round" stroke-width="2"/></g><g transform="translate(85 48)"><circle cx="15.845" cy="15.898" r="11.14" stroke="#666" stroke-linecap="round" stroke-linejoin="round" stroke-width="2"/><path stroke="#666" stroke-linecap="round" stroke-linejoin="round" stroke-width="2" d="M3.13806452 6.34606452C-1.11070968 12.0028387-1.11070968 19.7860645 3.13806452 25.4428387M28.5522581 25.4428387C32.8020645 19.7860645 32.8020645 12.0028387 28.5522581 6.34606452M6.29677419 28.6015484C11.9535484 32.8513548 19.7378065 32.8513548 25.3935484 28.6015484M25.3935484 3.18735484C19.7378065-1.06245161 11.9535484-1.06245161 6.29677419 3.18735484"/><path fill="#FFF" d="M12.6627097,12.7109677 L19.0286452,19.0769032 L12.6627097,12.7109677 Z"/><line x1="12.663" x2="19.029" y1="12.711" y2="19.077" stroke="#666" stroke-linecap="round" stroke-linejoin="round" stroke-width="2"/><path fill="#FFF" d="M19.0286452,12.7109677 L12.6627097,19.0769032 L19.0286452,12.7109677 Z"/><line x1="19.029" x2="12.663" y1="12.711" y2="19.077" stroke="#666" stroke-linecap="round" stroke-linejoin="round" stroke-width="2"/></g></g><g transform="translate(181 48)"><circle cx="15.845" cy="15.898" r="11.14" stroke="#666" stroke-linecap="round" stroke-linejoin="round" stroke-width="2"/><path stroke="#666" stroke-linecap="round" stroke-linejoin="round" stroke-width="2" d="M3.13806452 6.34606452C-1.11070968 12.0028387-1.11070968 19.7860645 3.13806452 25.4428387M28.5522581 25.4428387C32.8020645 19.7860645 32.8020645 12.0028387 28.5522581 6.34606452M6.29677419 28.6015484C11.9535484 32.8513548 19.7378065 32.8513548 25.3935484 28.6015484M25.3935484 3.18735484C19.7378065-1.06245161 11.9535484-1.06245161 6.29677419 3.18735484"/><path fill="#FFF" d="M12.6627097,12.7109677 L19.0286452,19.0769032 L12.6627097,12.7109677 Z"/><line x1="12.663" x2="19.029" y1="12.711" y2="19.077" stroke="#666" stroke-linecap="round" stroke-linejoin="round" stroke-width="2"/><path fill="#FFF" d="M19.0286452,12.7109677 L12.6627097,19.0769032 L19.0286452,12.7109677 Z"/><line x1="19.029" x2="12.663" y1="12.711" y2="19.077" stroke="#666" stroke-linecap="round" stroke-linejoin="round" stroke-width="2"/><g transform="translate(0 96)"><circle cx="15.845" cy="15.898" r="11.14" stroke="#666" stroke-linecap="round" stroke-linejoin="round" stroke-width="2"/><path stroke="#666" stroke-linecap="round" stroke-linejoin="round" stroke-width="2" d="M3.13806452 6.34606452C-1.11070968 12.0028387-1.11070968 19.7860645 3.13806452 25.4428387M28.5522581 25.4428387C32.8020645 19.7860645 32.8020645 12.0028387 28.5522581 6.34606452M6.29677419 28.6015484C11.9535484 32.8513548 19.7378065 32.8513548 25.3935484 28.6015484M25.3935484 3.18735484C19.7378065-1.06245161 11.9535484-1.06245161 6.29677419 3.18735484"/><path fill="#FFF" d="M12.6627097,12.7109677 L19.0286452,19.0769032 L12.6627097,12.7109677 Z"/><line x1="12.663" x2="19.029" y1="12.711" y2="19.077" stroke="#666" stroke-linecap="round" stroke-linejoin="round" stroke-width="2"/><path fill="#FFF" d="M19.0286452,12.7109677 L12.6627097,19.0769032 L19.0286452,12.7109677 Z"/><line x1="19.029" x2="12.663" y1="12.711" y2="19.077" stroke="#666" stroke-linecap="round" stroke-linejoin="round" stroke-width="2"/></g></g><g transform="translate(85)"><circle cx="15.845" cy="15.898" r="11.14" stroke="#666" stroke-linecap="round" stroke-linejoin="round" stroke-width="2"/><path stroke="#666" stroke-linecap="round" stroke-linejoin="round" stroke-width="2" d="M3.13806452 6.34606452C-1.11070968 12.0028387-1.11070968 19.7860645 3.13806452 25.4428387M28.5522581 25.4428387C32.8020645 19.7860645 32.8020645 12.0028387 28.5522581 6.34606452M6.29677419 28.6015484C11.9535484 32.8513548 19.7378065 32.8513548 25.3935484 28.6015484M25.3935484 3.18735484C19.7378065-1.06245161 11.9535484-1.06245161 6.29677419 3.18735484"/><path fill="#FFF" d="M12.6627097,12.7109677 L19.0286452,19.0769032 L12.6627097,12.7109677 Z"/><line x1="12.663" x2="19.029" y1="12.711" y2="19.077" stroke="#666" stroke-linecap="round" stroke-linejoin="round" stroke-width="2"/><path fill="#FFF" d="M19.0286452,12.7109677 L12.6627097,19.0769032 L19.0286452,12.7109677 Z"/><line x1="19.029" x2="12.663" y1="12.711" y2="19.077" stroke="#666" stroke-linecap="round" stroke-linejoin="round" stroke-width="2"/></g></g></g></g></svg>