<svg xmlns="http://www.w3.org/2000/svg" width="191" height="159" viewBox="0 0 191 159"><g fill="none" fill-rule="evenodd" transform="translate(3 2)"><g transform="translate(0 5.355)"><circle cx="106.706" cy="75.766" r="75.766" fill="#F04B69"/><path fill="#FFF" stroke="#666" stroke-linecap="round" stroke-linejoin="round" stroke-width="6" d="M68.982,145.6124 L35.516,145.6124 C15.898,145.6124 0,129.7124 0,110.0964 L0,74.5804 C0,54.9644 15.898,39.0664 35.516,39.0664 L68.976,39.0664 C88.594,39.0664 104.492002,54.9644 104.492002,74.5804 L104.492002,110.0964 C104.498,129.7124 88.594,145.6124 68.982,145.6124 Z"/><path fill="#FFF" d="M40.41,77.5404 L40.41,83.4604 L40.41,77.5404 Z"/><line x1="40.41" x2="40.41" y1="77.54" y2="83.46" fill="#FFF" stroke="#666" stroke-linecap="round" stroke-linejoin="round" stroke-width="6"/><path fill="#FFF" d="M64.088,77.5404 L64.088,83.4604 L64.088,77.5404 Z"/><line x1="64.088" x2="64.088" y1="77.54" y2="83.46" fill="#FFF" stroke="#666" stroke-linecap="round" stroke-linejoin="round" stroke-width="6"/><path fill="#FFF" d="M52.248,113.0564 C39.298,113.0564 31.532,105.2904 31.532,105.2904 L52.248,113.0564 Z"/><path fill="#FFF" stroke="#666" stroke-linecap="round" stroke-linejoin="round" stroke-width="6" d="M52.248,113.0564 C39.298,113.0564 31.532,105.2904 31.532,105.2904" transform="matrix(1 0 0 -1 0 218.347)"/><path fill="#FFF" d="M72.966,105.2904 C72.966,105.2904 65.2,113.0564 52.25,113.0564 L72.966,105.2904 Z"/><path fill="#FFF" stroke="#666" stroke-linecap="round" stroke-linejoin="round" stroke-width="6" d="M72.966,105.2904 C72.966,105.2904 65.2,113.0564 52.25,113.0564" transform="matrix(1 0 0 -1 0 218.347)"/><polyline stroke="#666" stroke-linecap="round" stroke-linejoin="round" stroke-width="4" points="167.918 103.432 165.194 106.228 167.918 103.432"/><path fill="#FFF" stroke="#666" stroke-linecap="round" stroke-linejoin="round" stroke-width="4" d="M150.21,122.7124 L157.616,144.9344 C157.954,145.9424 158.846,146.6624 159.902,146.7784 C160.96,146.8944 161.988,146.3844 162.534,145.4744 L167.102,137.8604 C167.52,137.1624 168.104,136.5804 168.8,136.1624 L176.414,131.5924 C177.326,131.0464 177.836,130.0184 177.72,128.9604 C177.604,127.9044 176.884,127.0124 175.876,126.6744 L153.654,119.2684 C152.676,118.9424 151.596,119.1964 150.868,119.9264 C150.138,120.6544 149.884,121.7344 150.21,122.7124 Z"/><line x1="176.06" x2="168.512" y1="145.118" y2="137.572" stroke="#666" stroke-linecap="round" stroke-linejoin="round" stroke-width="4"/><line x1="151.144" x2="151.194" y1="96.482" y2="100.384" stroke="#666" stroke-linecap="round" stroke-linejoin="round" stroke-width="4"/><polyline stroke="#666" stroke-linecap="round" stroke-linejoin="round" stroke-width="4" points="134.372 103.432 137.17 106.148 134.372 103.432"/><polyline stroke="#666" stroke-linecap="round" stroke-linejoin="round" stroke-width="4" points="127.424 120.202 131.328 120.144 127.424 120.202"/><polyline stroke="#666" stroke-linecap="round" stroke-linejoin="round" stroke-width="4" points="134.372 136.976 137.17 134.254 134.372 136.976"/></g><circle cx="154.7" cy="30.802" r="21.583" fill="#FFF" stroke="#666" stroke-linecap="round" stroke-linejoin="round" stroke-width="4"/><path stroke="#666" stroke-linecap="round" stroke-linejoin="round" stroke-width="4" d="M130.08 12.2955C121.848 23.2555 121.848 38.3355 130.08 49.2955M179.32 49.2955C187.554 38.3355 187.554 23.2555 179.32 12.2955M136.2 55.4155C147.16 63.6495 162.242 63.6495 173.2 55.4155M173.2 6.1755C162.242-2.0585 147.16-2.0585 136.2 6.1755"/><path fill="#FFF" d="M148.534,24.6275 L160.868,36.9615 L148.534,24.6275 Z"/><line x1="148.534" x2="160.868" y1="24.628" y2="36.962" stroke="#666" stroke-linecap="round" stroke-linejoin="round" stroke-width="4"/><path fill="#FFF" d="M160.868,24.6275 L148.534,36.9615 L160.868,24.6275 Z"/><line x1="160.868" x2="148.534" y1="24.628" y2="36.962" stroke="#666" stroke-linecap="round" stroke-linejoin="round" stroke-width="4"/></g></svg>