<svg xmlns="http://www.w3.org/2000/svg" width="191" height="161" viewBox="0 0 191 161"><g fill="none" fill-rule="evenodd" transform="translate(3 2)"><g transform="translate(0 5.355)"><circle cx="106.706" cy="75.766" r="75.766" fill="#F04B69"/><g fill="#FFF" transform="translate(0 20)"><path stroke="#666" stroke-linecap="round" stroke-linejoin="round" stroke-width="6" d="M68.982,106.546 L35.516,106.546 C15.898,106.546 -1.63424829e-13,90.646 -1.63424829e-13,71.03 L-1.63424829e-13,35.514 C-1.63424829e-13,15.898 15.898,1.42108547e-14 35.516,1.42108547e-14 L68.976,1.42108547e-14 C88.594,1.42108547e-14 104.492002,15.898 104.492002,35.514 L104.492002,71.03 C104.498,90.646 88.594,106.546 68.982,106.546 Z"/><path d="M40.41,38.474 L40.41,44.394 L40.41,38.474 Z"/><line x1="40.41" x2="40.41" y1="38.474" y2="44.394" stroke="#666" stroke-linecap="round" stroke-linejoin="round" stroke-width="6"/><path d="M64.088,38.474 L64.088,44.394 L64.088,38.474 Z"/><line x1="64.088" x2="64.088" y1="38.474" y2="44.394" stroke="#666" stroke-linecap="round" stroke-linejoin="round" stroke-width="6"/><path d="M52.248,73.99 C39.298,73.99 31.532,66.224 31.532,66.224 L52.248,73.99 Z"/><path stroke="#666" stroke-linecap="round" stroke-linejoin="round" stroke-width="6" d="M52.248,73.99 C39.298,73.99 31.532,66.224 31.532,66.224" transform="matrix(1 0 0 -1 0 140.214)"/><path d="M72.966,66.224 C72.966,66.224 65.2,73.99 52.25,73.99 L72.966,66.224 Z"/><path stroke="#666" stroke-linecap="round" stroke-linejoin="round" stroke-width="6" d="M72.966,66.224 C72.966,66.224 65.2,73.99 52.25,73.99" transform="matrix(1 0 0 -1 0 140.214)"/></g><path fill="#FFF" d="M137.245232,136.3947 L141.705232,147.6467 C142.501232,149.6587 144.431232,150.9767 146.575232,150.9767 L146.575232,150.9767 C150.283232,150.9767 152.819232,147.2027 151.453232,143.7247 L148.567232,136.3947"/><path fill="#FFF" stroke="#666" stroke-linecap="round" stroke-linejoin="round" stroke-width="4" d="M137.245232,136.3947 L141.705232,147.6467 C142.501232,149.6587 144.431232,150.9767 146.575232,150.9767 L146.575232,150.9767 C150.283232,150.9767 152.819232,147.2027 151.453232,143.7247 L148.567232,136.3947"/><path fill="#FFF" stroke="#666" stroke-linecap="round" stroke-linejoin="round" stroke-width="4" d="M160.573232,136.3947 L140.161232,136.3887 C133.719232,136.3887 128.495232,131.1627 128.495232,124.7167 L128.495232,121.8087 C128.495232,115.3627 133.719232,110.1387 140.165232,110.1387 L160.575232,110.1387 L171.869232,102.4207 C175.743232,99.7767 180.995232,102.5507 180.995232,107.2407 L180.995232,139.3007 C180.995232,143.9907 175.739232,146.7627 171.869232,144.1147 L160.573232,136.3947 Z"/><path fill="#FFF" d="M160.579232,110.1447 L160.579232,136.3947 L160.579232,110.1447 Z"/><line x1="160.579" x2="160.579" y1="110.145" y2="136.395" stroke="#666" stroke-linecap="round" stroke-linejoin="round" stroke-width="4"/></g><circle cx="154.7" cy="30.802" r="21.583" fill="#FFF" stroke="#666" stroke-linecap="round" stroke-linejoin="round" stroke-width="4"/><path stroke="#666" stroke-linecap="round" stroke-linejoin="round" stroke-width="4" d="M130.08 12.2955C121.848 23.2555 121.848 38.3355 130.08 49.2955M179.32 49.2955C187.554 38.3355 187.554 23.2555 179.32 12.2955M136.2 55.4155C147.16 63.6495 162.242 63.6495 173.2 55.4155M173.2 6.1755C162.242-2.0585 147.16-2.0585 136.2 6.1755"/><path fill="#FFF" d="M148.534,24.6275 L160.868,36.9615 L148.534,24.6275 Z"/><line x1="148.534" x2="160.868" y1="24.628" y2="36.962" stroke="#666" stroke-linecap="round" stroke-linejoin="round" stroke-width="4"/><path fill="#FFF" d="M160.868,24.6275 L148.534,36.9615 L160.868,24.6275 Z"/><line x1="160.868" x2="148.534" y1="24.628" y2="36.962" stroke="#666" stroke-linecap="round" stroke-linejoin="round" stroke-width="4"/></g></svg>