<svg xmlns="http://www.w3.org/2000/svg" width="24" height="24" viewBox="0 0 24 24"><g fill="none" fill-rule="evenodd" stroke="#999" stroke-linecap="round" stroke-linejoin="round" stroke-width="1.5" transform="translate(3 3)"><path d="M0,8.29100003 C0,10.974 1.42000001,13.3360001 3.59900001,14.8250001 C3.59800001,15.6800001 3.60000002,16.8320001 3.60000002,18.0410001 L7.13100003,16.2940001 C7.73500003,16.4100001 8.35900003,16.4730001 9,16.4730001 C13.9520001,16.4730001 18,12.8300001 18,8.29100003 C18,3.75200002 13.9520001,0.109 9,0.109 C4.04800002,0.109 0,3.75200002 0,8.29100003 Z"/><path d="M8.89900004 9.32800004 8.89900004 9.12100004C8.89900004 8.44300004 9.31800004 8.07600003 9.73800004 7.79400003 10.148 7.51800003 10.559 7.15800003 10.559 6.49400003 10.559 5.57700002 9.81600004 4.83500002 8.90000004 4.83500002 7.98400003 4.83500002 7.24000003 5.57600002 7.24000003 6.49300003M8.89800004 11.667C8.81500004 11.667 8.74800004 11.734 8.74900004 11.817 8.74900004 11.9 8.81600004 11.967 8.89899451 11.967 8.98200004 11.967 9.04900004 11.9 9.04900004 11.817 9.04900004 11.734 8.98300004 11.667 8.89800004 11.667"/></g></svg>